<?xml version="1.0" standalone="no"?>
<svg xmlns="http://www.w3.org/2000/svg" viewBox="0 0 136.488 36" width="136.488" height="36"><g fill="#222" color="#222" transform="translate(108.488, 3.9999999999999982) scale(0.2800001)"><svg width="100.0" height="100.0" x="0.0" y="0.0" viewBox="0 0 100 100"><path d="M25.5,4c0-1.3-1-2.3-2.3-2.3c-1.3,0-2.3,1-2.3,2.3v5.1h4.7V4z M23.2,34.3c6.3,0,11.5-5.1,11.5-11.5  c0-6.3-5.1-11.5-11.5-11.5c-6.3,0-11.5,5.1-11.5,11.5C11.7,29.2,16.8,34.3,23.2,34.3z M38.9,11.7c0.9-0.9,0.9-2.4,0-3.3  c-0.9-0.9-2.4-0.9-3.3,0L32,12.1l3.3,3.3L38.9,11.7z M32,33.6l3.6,3.6c0.9,0.9,2.4,0.9,3.3,0c0.9-0.9,0.9-2.4,0-3.3l-3.6-3.6  L32,33.6z M36.8,25.2h5.1c1.3,0,2.3-1,2.3-2.3c0-1.3-1-2.3-2.3-2.3h-5.1V25.2z M11,15.4l3.3-3.3l-3.6-3.6c-0.9-0.9-2.4-0.9-3.3,0  c-0.9,0.9-0.9,2.4,0,3.3L11,15.4z M20.8,41.7c0,1.3,1,2.3,2.3,2.3c1.3,0,2.3-1,2.3-2.3v-5.1h-4.7V41.7z M4.3,25.2h5.1v-4.7H4.3  c-1.3,0-2.3,1-2.3,2.3C2,24.1,3,25.2,4.3,25.2z M7.4,33.9c-0.9,0.9-0.9,2.4,0,3.3c0.9,0.9,2.4,0.9,3.3,0l3.6-3.6L11,30.3L7.4,33.9z   M84.4,94.3c-10.4,0-13.6-6-22.4-6c-1,0-2.1,0.1-3.2,0.2l11.5-29.3c1.6-0.2,3.5,0.1,5.5,0.9c2.9,1.1,5,2.9,5.7,4.6  c0.2,0.6,0.9,0.8,1.5,0.6c1.7-0.8,4.5-0.7,7.3,0.4c2.1,0.8,3.9,2,4.9,3.3c0.6,0.7,1.8,0.5,2-0.4c3.7-14.9-4.2-30.6-18.9-36.3  C63.4,26.5,47,32.9,39.8,46.5c-0.4,0.8,0.3,1.8,1.2,1.7c1.6-0.3,3.7,0,5.8,0.8c2.8,1.1,4.9,2.9,5.6,4.6c0.2,0.6,0.9,0.8,1.5,0.6  c1.7-0.8,4.5-0.7,7.3,0.4c2,0.8,3.7,1.9,4.7,3.1L53.4,89.4c-2,0.4-4,0.9-6.3,1.4v-7.7c0-1.1-0.4-2.1-1.2-2.8l3.5-3.5  c0.8-0.8,0.8-2,0-2.8s-2-0.8-2.8,0L35.8,85H18.7c-2.8,0-5.1,2.3-5.1,5.1V94C6.3,94.9,2,96.5,2,98.3h96C98,98.3,94.8,94.3,84.4,94.3z   M65,50.1c-0.2,0.4-0.5,0.6-0.9,0.6c-0.1,0-0.2,0-0.4-0.1c-0.5-0.2-0.8-0.8-0.6-1.3c0.1-0.4,3-7.9,10.5-11.4  c-12.6-1.7-20.3,7-20.6,7.4c-0.2,0.2-0.5,0.3-0.8,0.3c-0.2,0-0.5-0.1-0.7-0.2c-0.4-0.4-0.5-1-0.1-1.4c0.1-0.1,10.2-11.6,26.1-7.3  l0,0c0,0,0.1,0,0.1,0.1c0,0,0.1,0,0.1,0c0,0,0,0,0,0C92,45.5,90.1,60.8,90.1,60.9c-0.1,0.5-0.5,0.9-1,0.9c0,0-0.1,0-0.1,0  c-0.5-0.1-0.9-0.6-0.9-1.1c0.1-0.5,1.4-12-8.4-20.1c2.5,7.9-1.3,15.2-1.5,15.6c-0.2,0.3-0.5,0.5-0.9,0.5c-0.2,0-0.3,0-0.5-0.1  c-0.5-0.3-0.7-0.9-0.4-1.4c0-0.1,4.4-8.5,0.4-16.4C68.3,41.4,65,50,65,50.1z M43.2,91.7c-4.5,0.9-9.5,1.6-15.3,1.6  c-3.8,0-7.2,0.1-10.3,0.4v-3.5c0-0.6,0.5-1.1,1.1-1.1h18.7l0.6-0.6c0,0,0,0,0,0l5.2-5.2V91.7z"></path></svg></g><path fill="#0180D7" fill-rule="nonzero" d="M10.06 18.53L10.06 18.53Q10.06 17.52 10.39 15.94Q10.73 14.35 11.28 12.55L11.28 12.55Q9.70 12.67 8.10 12.86Q6.50 13.06 5.33 13.08L5.33 13.08Q4.25 15.60 3.61 17.72Q2.98 19.85 2.62 21.86L2.62 21.86Q1.70 21.65 1.10 21.11Q0.50 20.57 0 19.75L0 19.75Q0.19 19.37 0.44 18.77Q0.70 18.17 1.04 17.32Q1.39 16.46 1.84 15.32Q2.28 14.18 2.86 12.67L2.86 12.67Q2.06 12.34 1.80 11.74L1.80 11.74Q1.92 11.64 2.34 11.53Q2.76 11.42 3.38 11.30L3.38 11.30L3.70 10.54Q4.20 9.24 4.52 8.35Q4.85 7.46 5.08 6.61Q5.30 5.76 5.51 4.73Q5.71 3.70 6 2.11L6 2.11Q7.01 2.30 7.84 3Q8.66 3.70 9.26 4.68L9.26 4.68Q9.05 4.97 8.74 5.54Q8.42 6.12 8.05 6.92Q7.68 7.73 7.25 8.72Q6.82 9.72 6.31 10.82L6.31 10.82Q7.80 10.63 9.32 10.46Q10.85 10.30 12.02 10.22L12.02 10.22Q12.46 8.98 12.92 7.79Q13.39 6.60 13.85 5.62Q14.30 4.63 14.72 3.89Q15.14 3.14 15.48 2.78L15.48 2.78Q15.72 2.81 16.12 2.96Q16.51 3.12 16.92 3.34Q17.33 3.55 17.66 3.80Q18 4.06 18.12 4.27L18.12 4.27Q17.69 4.68 17.26 5.33Q16.82 5.98 16.40 6.82Q15.98 7.66 15.58 8.64Q15.17 9.62 14.81 10.68L14.81 10.68Q15.29 11.11 15.29 11.76L15.29 11.76Q15.29 12.22 15.10 12.60L15.10 12.60Q14.88 12.55 14.66 12.54Q14.45 12.53 14.21 12.50L14.21 12.50Q13.80 13.80 13.46 15.07Q13.13 16.34 12.90 17.50Q12.67 18.65 12.54 19.61Q12.41 20.57 12.41 21.22L12.41 21.22Q12.41 21.46 12.42 21.60Q12.43 21.74 12.46 21.84L12.46 21.84Q11.93 21.82 11.69 21.66Q11.45 21.50 11.33 21.32Q11.21 21.14 11.11 20.96Q11.02 20.78 10.80 20.69L10.80 20.69Q10.63 20.62 10.49 20.35Q10.34 20.09 10.25 19.75Q10.15 19.42 10.10 19.08Q10.06 18.74 10.06 18.53ZM24.84 9.98L24.84 9.98Q24.74 11.47 24.31 12.54Q23.88 13.61 23.08 14.41Q22.27 15.22 21.12 15.86Q19.97 16.51 18.43 17.11L18.43 17.11Q18.43 17.26 18.42 17.41Q18.41 17.57 18.41 17.74L18.41 17.74Q18.41 18.05 18.46 18.38Q18.50 18.72 18.62 19.01Q18.74 19.30 18.96 19.48Q19.18 19.66 19.51 19.66L19.51 19.66Q20.16 19.66 20.78 19.37Q21.41 19.08 21.97 18.66Q22.54 18.24 23.03 17.75Q23.52 17.26 23.90 16.85L23.90 16.85Q24.14 17.06 24.31 17.26L24.31 17.26Q23.23 18.70 21.95 19.64Q20.66 20.59 19.51 20.86L19.51 20.86Q17.86 20.66 16.93 19.64Q16.01 18.62 16.01 17.18L16.01 17.18Q16.01 16.20 16.28 15.18Q16.56 14.16 17.05 13.21Q17.54 12.26 18.20 11.42Q18.86 10.58 19.62 9.96Q20.38 9.34 21.18 8.98Q21.98 8.62 22.78 8.62L22.78 8.62Q23.88 8.76 24.84 9.98ZM23.18 10.78L23.18 10.78Q22.54 10.87 21.84 11.30Q21.14 11.74 20.53 12.46Q19.92 13.18 19.42 14.14Q18.91 15.10 18.62 16.20L18.62 16.20Q20.54 15.24 21.82 13.84Q23.09 12.43 23.18 10.78ZM34.22 10.22L34.22 10.22Q34.46 10.22 34.79 10.31Q35.11 10.39 35.38 10.52Q35.64 10.66 35.82 10.80Q36 10.94 36 11.06L36 11.06Q35.52 12.07 35.11 13.09Q34.70 14.11 34.42 15.05Q34.13 15.98 33.97 16.80Q33.82 17.62 33.82 18.22L33.82 18.22Q33.82 18.89 33.96 19.33Q34.10 19.78 34.44 19.97L34.44 19.97Q34.15 20.16 33.70 20.28Q33.24 20.40 32.88 20.40L32.88 20.40Q31.58 20.40 31.58 18.62L31.58 18.62Q31.58 17.26 32.50 14.88L32.50 14.88Q32.02 15.98 31.39 16.96Q30.77 17.93 30.12 18.67Q29.47 19.42 28.81 19.88Q28.15 20.35 27.60 20.45L27.60 20.45Q26.71 20.40 26.16 19.60Q25.61 18.79 25.61 17.54L25.61 17.54Q25.61 16.20 26.18 14.71Q26.76 13.22 27.66 11.95Q28.56 10.68 29.62 9.83Q30.67 8.98 31.66 8.93L31.66 8.93Q31.90 9.00 32.20 9.22Q32.50 9.43 32.77 9.72Q33.05 10.01 33.24 10.31Q33.43 10.61 33.46 10.82L33.46 10.82Q32.50 10.97 31.48 11.76Q30.46 12.55 29.63 13.67Q28.80 14.78 28.27 16.06Q27.74 17.33 27.74 18.43L27.74 18.43Q27.74 18.89 28.08 19.01L28.08 19.01Q28.78 18.86 29.69 17.82Q30.60 16.78 31.90 14.59L31.90 14.59Q32.14 14.16 32.44 13.63Q32.74 13.10 33.05 12.53Q33.36 11.95 33.66 11.36Q33.96 10.78 34.22 10.22ZM37.20 18.38L37.20 18.38Q37.20 17.33 37.70 15.42Q38.21 13.51 39.12 10.97L39.12 10.97Q40.61 6.91 41.92 4.21Q43.22 1.51 44.47 0L44.47 0Q44.76 0.05 45.18 0.24Q45.60 0.43 46.01 0.66Q46.42 0.89 46.74 1.13Q47.06 1.37 47.16 1.51L47.16 1.51Q45.29 3.72 43.87 6.26Q42.46 8.81 41.28 12.10L41.28 12.10Q40.27 14.93 39.74 17.20Q39.22 19.46 39.22 20.98L39.22 20.98Q39.22 21.38 39.22 21.48Q39.22 21.58 39.24 21.67L39.24 21.67Q38.90 21.62 38.66 21.50Q38.42 21.38 38.35 21.22L38.35 21.22Q38.30 21.10 38.09 20.87Q37.87 20.64 37.70 20.52L37.70 20.52Q37.49 20.38 37.34 19.76Q37.20 19.15 37.20 18.38ZM42.91 18.31L42.91 18.31Q42.91 18.10 42.95 17.77Q42.98 17.45 43.08 16.91Q43.18 16.37 43.33 15.60Q43.49 14.83 43.73 13.75L43.73 13.75Q43.78 13.51 43.94 12.98Q44.11 12.46 44.39 11.87Q44.66 11.28 45.06 10.73Q45.46 10.18 46.01 9.91L46.01 9.91Q46.42 10.01 47.09 10.40Q47.76 10.80 48.24 11.50L48.24 11.50Q47.69 12.12 47.32 12.74Q46.94 13.37 46.64 14.04Q46.34 14.71 46.09 15.43Q45.84 16.15 45.53 16.94L45.53 16.94Q45.26 17.62 45.05 18.32Q44.83 19.03 44.81 19.56L44.81 19.56Q44.81 19.99 44.80 20.17Q44.78 20.35 44.66 20.35L44.66 20.35Q44.57 20.35 44.28 20.23Q43.99 20.11 43.69 19.86Q43.39 19.61 43.15 19.22Q42.91 18.84 42.91 18.31ZM47.50 7.90L47.50 7.90Q47.50 7.75 47.57 7.46L47.57 7.46Q47.45 7.34 47.36 7.10Q47.28 6.86 47.28 6.67L47.28 6.67Q47.28 6.46 47.34 6.08Q47.40 5.71 47.50 5.28Q47.59 4.85 47.74 4.38Q47.88 3.91 48.02 3.53L48.02 3.53Q48.31 3.53 48.73 3.68Q49.15 3.84 49.58 4.09Q50.02 4.34 50.38 4.64Q50.74 4.94 50.93 5.21L50.93 5.21Q50.66 5.47 50.23 5.94Q49.80 6.41 49.39 6.92Q48.98 7.44 48.65 7.90Q48.31 8.35 48.22 8.54L48.22 8.54Q47.93 8.50 47.71 8.29Q47.50 8.09 47.50 7.90ZM52.44 8.28L52.44 8.28Q53.06 8.47 53.62 9.13Q54.17 9.79 54.43 10.58L54.43 10.58Q54.17 11.23 53.62 12.14Q53.06 13.06 52.51 14.00Q51.96 14.95 51.52 15.80Q51.07 16.66 51 17.21L51 17.21Q51.38 16.80 51.85 16.26Q52.32 15.72 52.76 15.18Q53.21 14.64 53.59 14.20Q53.98 13.75 54.19 13.54L54.19 13.54Q54.65 13.06 55.27 12.42Q55.90 11.78 56.58 11.22Q57.26 10.66 57.96 10.26Q58.66 9.86 59.23 9.86L59.23 9.86Q59.86 9.86 60.28 10.28Q60.70 10.70 60.94 11.16L60.94 11.16Q60.94 11.21 60.76 11.29Q60.58 11.38 60.24 11.76L60.24 11.76Q59.90 12.19 59.48 12.95Q59.06 13.70 58.67 14.58Q58.27 15.46 58.01 16.37Q57.74 17.28 57.74 18.02L57.74 18.02Q57.74 18.62 57.90 18.79Q58.06 18.96 58.34 18.96L58.34 18.96Q58.61 18.96 58.90 18.84Q59.18 18.72 59.35 18.72L59.35 18.72Q59.45 18.77 59.51 18.92Q59.57 19.08 59.57 19.20L59.57 19.20Q59.38 19.37 59.11 19.54Q58.85 19.70 58.56 19.85Q58.27 19.99 58.00 20.09Q57.72 20.18 57.50 20.18L57.50 20.18Q56.81 20.18 56.36 19.98Q55.92 19.78 55.67 19.44Q55.42 19.10 55.32 18.64Q55.22 18.17 55.22 17.64L55.22 17.64Q55.22 17.35 55.27 16.99Q55.32 16.63 55.46 16.14Q55.61 15.65 55.87 14.96Q56.14 14.28 56.54 13.32L56.54 13.32Q56.50 13.32 55.90 13.66Q55.30 13.99 54.60 14.69L54.60 14.69Q53.47 15.77 52.57 16.82Q51.67 17.88 50.74 19.18L50.74 19.18Q50.21 19.92 49.81 20.44Q49.42 20.95 49.13 21.12L49.13 21.12Q48.62 20.83 48.38 20.32Q48.14 19.80 48.02 19.25L48.02 19.25Q48.02 18.79 48.16 18.10Q48.29 17.40 48.52 16.55Q48.74 15.70 49.08 14.76Q49.42 13.82 49.82 12.89L49.82 12.89Q50.74 10.78 51.49 9.58Q52.25 8.38 52.44 8.28ZM56.66 27.07L56.66 27.07Q56.66 26.93 56.76 26.81Q56.86 26.69 56.98 26.57L56.98 26.57Q57.26 26.83 57.47 26.98Q57.67 27.12 57.85 27.22Q58.03 27.31 58.22 27.34Q58.42 27.36 58.68 27.36L58.68 27.36Q59.93 27.36 61.06 26.70Q62.18 26.04 63.18 24.79Q64.18 23.54 64.99 21.74Q65.81 19.94 66.43 17.66L66.43 17.66Q66.14 17.95 65.72 18.30Q65.30 18.65 64.85 18.96Q64.39 19.27 63.95 19.54Q63.50 19.80 63.19 19.92L63.19 19.92Q62.78 19.85 62.44 19.57Q62.09 19.30 61.82 18.89Q61.56 18.48 61.42 17.96Q61.27 17.45 61.27 16.87L61.27 16.87Q61.27 15.94 61.62 14.95Q61.97 13.97 62.54 13.02Q63.12 12.07 63.90 11.23Q64.68 10.39 65.56 9.77Q66.43 9.14 67.33 8.77Q68.23 8.40 69.10 8.40L69.10 8.40Q69.94 8.40 70.36 8.75Q70.78 9.10 70.97 9.94L70.97 9.94Q70.70 9.79 70.30 9.79L70.30 9.79Q69.72 9.79 68.96 10.25Q68.21 10.70 67.43 11.44Q66.65 12.17 65.88 13.12Q65.11 14.06 64.52 15.05Q63.94 16.03 63.56 16.97Q63.19 17.90 63.19 18.65L63.19 18.65Q63.19 18.82 63.22 18.85Q63.24 18.89 63.29 18.89L63.29 18.89Q63.50 18.89 63.88 18.65Q64.25 18.41 64.72 18.04Q65.18 17.66 65.69 17.17Q66.19 16.68 66.65 16.18L66.65 16.18Q67.68 15.02 68.53 13.60Q69.38 12.17 69.89 10.82L69.89 10.82Q70.54 10.87 71.04 11.04Q71.54 11.21 71.74 11.40L71.74 11.40Q70.92 13.27 70.43 14.54Q69.94 15.82 69.58 16.80L69.58 16.80Q68.93 18.53 68.36 19.96Q67.80 21.38 67.21 22.60Q66.62 23.81 65.94 24.85Q65.26 25.90 64.39 26.86L64.39 26.86Q63.98 27.31 63.47 27.66Q62.95 28.01 62.41 28.25Q61.87 28.49 61.36 28.61Q60.84 28.73 60.41 28.73L60.41 28.73Q59.83 28.73 59.23 28.60Q58.63 28.46 58.12 28.24Q57.60 28.01 57.22 27.71Q56.83 27.41 56.66 27.07ZM84.00 2.45L84.00 2.45Q84.41 2.64 84.86 2.94Q85.32 3.24 85.70 3.56Q86.09 3.89 86.35 4.19Q86.62 4.49 86.62 4.66L86.62 4.66Q86.28 4.58 85.88 4.54Q85.49 4.49 85.13 4.49L85.13 4.49Q83.83 4.49 82.61 5.05Q81.38 5.62 80.28 6.67Q79.18 7.73 78.25 9.25Q77.33 10.78 76.66 12.70L76.66 12.70Q76.10 14.30 75.77 15.88Q75.43 17.45 75.43 18.50L75.43 18.50Q75.43 19.85 75.98 19.90L75.98 19.90Q76.13 19.90 76.48 19.96Q76.82 20.02 77.22 20.11Q77.62 20.21 78.01 20.32Q78.41 20.42 78.67 20.52L78.67 20.52Q79.58 20.47 80.81 19.68Q82.03 18.89 83.21 17.57L83.21 17.57Q84.24 16.42 85.07 15.04Q85.90 13.66 86.47 12.13Q87.05 10.61 87.35 9.00Q87.65 7.39 87.65 5.81L87.65 5.81Q87.65 5.33 87.62 4.87Q87.60 4.42 87.55 4.25L87.55 4.25Q88.54 4.73 88.94 5.38Q89.35 6.02 89.35 7.03L89.35 7.03Q89.35 8.47 88.90 10.13Q88.44 11.78 87.64 13.44Q86.83 15.10 85.73 16.62Q84.62 18.14 83.33 19.34L83.33 19.34Q81.62 20.93 80.54 21.12L80.54 21.12Q81.19 21.46 82.03 21.85Q82.87 22.25 83.66 22.60Q84.46 22.94 85.08 23.18Q85.70 23.42 85.92 23.45L85.92 23.45Q86.16 23.42 86.54 23.15Q86.93 22.87 87.19 22.49L87.19 22.49Q87.31 22.63 87.42 22.87Q87.53 23.11 87.55 23.23L87.55 23.23Q87.46 23.57 87.16 24.01Q86.86 24.46 86.47 24.88Q86.09 25.30 85.69 25.61Q85.30 25.92 85.01 25.99L85.01 25.99Q84.60 25.97 84.25 25.88Q83.90 25.80 83.50 25.62Q83.09 25.44 82.58 25.12Q82.08 24.79 81.34 24.29L81.34 24.29Q80.02 23.38 79.03 22.78Q78.05 22.18 77.23 21.82Q76.42 21.46 75.70 21.31Q74.98 21.17 74.21 21.17L74.21 21.17Q71.52 21.17 71.23 22.97L71.23 22.97Q70.87 22.80 70.82 22.51L70.82 22.51Q70.97 21.29 71.72 20.64Q72.48 19.99 74.06 19.80L74.06 19.80Q72.96 18.84 72.96 16.44L72.96 16.44Q72.96 14.76 73.36 13.04Q73.75 11.33 74.44 9.74Q75.12 8.16 76.04 6.78Q76.97 5.40 78.04 4.37Q79.10 3.34 80.26 2.75Q81.41 2.16 82.54 2.16L82.54 2.16Q82.94 2.16 83.29 2.23Q83.64 2.30 84.00 2.45ZM95.62 19.39L95.62 19.39Q95.16 19.01 95.00 18.43Q94.85 17.86 94.85 17.45L94.85 17.45Q94.85 16.94 94.97 16.58L94.97 16.58Q94.87 16.58 94.54 16.97Q94.20 17.35 93.80 17.88Q93.41 18.41 93.02 18.91Q92.64 19.42 92.45 19.66L92.45 19.66Q92.14 19.99 91.86 20.18Q91.58 20.38 91.42 20.40L91.42 20.40Q91.03 20.38 90.61 20.24Q90.19 20.11 89.82 19.87Q89.45 19.63 89.17 19.30Q88.90 18.96 88.80 18.53L88.80 18.53Q88.80 17.86 88.84 17.42Q88.87 16.99 88.99 16.49L88.99 16.49Q89.21 15.58 89.63 14.42Q90.05 13.27 90.60 12.16Q91.15 11.04 91.84 10.07Q92.52 9.10 93.29 8.54L93.29 8.54Q93.50 8.54 93.79 8.58Q94.08 8.62 94.38 8.71Q94.68 8.81 94.96 8.94Q95.23 9.07 95.42 9.29L95.42 9.29Q95.21 9.53 94.33 10.90Q93.46 12.26 92.38 14.83L92.38 14.83Q92.26 15.10 92.09 15.60Q91.92 16.10 91.75 16.66Q91.58 17.21 91.48 17.74Q91.37 18.26 91.37 18.58L91.37 18.58Q91.37 18.77 91.43 18.86Q91.49 18.96 91.54 19.01L91.54 19.01Q91.90 18.86 92.45 18.22Q93 17.57 93.98 16.22L93.98 16.22Q94.22 15.89 94.55 15.46Q94.87 15.02 95.21 14.53Q95.54 14.04 95.84 13.51Q96.14 12.98 96.34 12.46L96.34 12.46Q96.43 12.17 96.59 11.77Q96.74 11.38 96.97 10.94Q97.20 10.51 97.50 10.07Q97.80 9.62 98.21 9.24L98.21 9.24Q98.52 9.24 98.88 9.31Q99.24 9.38 99.56 9.49Q99.89 9.60 100.13 9.73Q100.37 9.86 100.49 10.01L100.49 10.01Q100.06 11.06 99.53 12.10Q99 13.13 98.54 14.12Q98.09 15.12 97.78 16.10Q97.46 17.09 97.46 18.02L97.46 18.02Q97.46 18.53 97.55 18.90Q97.63 19.27 97.73 19.52Q97.82 19.78 97.91 19.94Q97.99 20.11 97.99 20.23L97.99 20.23Q97.99 20.26 97.94 20.30L97.94 20.30Q97.92 20.33 97.90 20.33L97.90 20.33Q97.73 20.33 97.46 20.26Q97.20 20.18 96.88 20.05Q96.55 19.92 96.23 19.75Q95.90 19.58 95.62 19.39Z" transform="translate(0, 3.636)"></path></svg>